# xmcd CD database file
#
# Track frame offsets:
#	150
#	31637
#	57322
#	74554
#	93199
#	110002
#	127742
#	136650
#	164185
#	189817
#	213839
#	228667
#	258043
#	283161
#	290100
#
# Disc length: 4262 seconds
#
# Revision: 0
# Processed by: cddbd v1.5.1PL2 Copyright (c) Steve Scherf et al.
# Submitted via: CDex 1.51
#
DISCID=d910a40f
DTITLE=EDDIE PALMIERI - Best ofEddie Palmieri
DYEAR=1900
DGENRE=Salsa
TTITLE0=Puerto Rico
TTITLE1=Kinkamache
TTITLE2=Vamonos Pal Monte
TTITLE3=La Malanga
TTITLE4=PaHuele
TTITLE5=Un Puesto Vacante
TTITLE6=Prelude for Un Dia Bonito
TTITLE7=Un Dia Bonito
TTITLE8=Adoracion
TTITLE9=Una Rosa Espanola
TTITLE10=Mi Cumbia
TTITLE11=Nada De Ti
TTITLE12=La Libertad Logica
TTITLE13=Camagueyanos Y Habaneros
TTITLE14=Oyelo Que Te Conviene
EXTD=
EXTT0=
EXTT1=
EXTT2=
EXTT3=
EXTT4=
EXTT5=
EXTT6=
EXTT7=
EXTT8=
EXTT9=
EXTT10=
EXTT11=
EXTT12=
EXTT13=
EXTT14=
PLAYORDER=
